PathFileType	4	(X/Y/Z)	/home/abdul/Desktop/myosuite/custom_workspace/IK/output/S16_12_3.trc
DataRate	CameraRate	NumFrames	NumMarkers	Units	OrigDataRate	OrigDataStartFrame	OrigNumFrames
200.0	200.0	56	3	mm	200.0	1	1220
Frame#	Time	V_Shoulder			V_Elbow			V_Wrist		
		X1	Y1	Z1	X2	Y2	Z2	X3	Y3	Z3

1	0.0	-152.03901348242778	620.5973575381204	285.0571889057541	-276.697462524965	490.3594531271075	10.001958011456324	-243.20562463290042	338.45797213124524	23.84147909112928
2	0.005	-152.03371656428183	620.6068523435162	285.0623445231929	-276.6971724165428	490.36573454053246	10.002330809936877	-243.21353023865709	338.4663901091853	23.83868747970699
3	0.01	-152.02831126082404	620.6164086091426	285.0676884349955	-276.6970934558462	490.37210550077816	10.002900074283446	-243.22189392694173	338.4749557215474	23.836322317819175
4	0.015	-152.02280479977685	620.6260096136888	285.0732149803925	-276.69723427464874	490.37854629681067	10.003678116684792	-243.23070322453998	338.48364247620157	23.83441372143969
5	0.02	-152.01720489824712	620.6356382033024	285.0789176714428	-276.6976029443655	490.3850360279761	10.004677121844981	-243.23994320640284	338.49242212557755	23.83299142599349
6	0.025	-152.0115197588419	620.645276834251	285.0847891754142	-276.69820691244064	490.39155263105823	10.005909085348131	-243.24959643573987	338.5012646956185	23.832084647214867
7	0.03	-152.0057580645585	620.6549076174329	285.0908212989942	-276.6990529380379	490.3980729133225	10.007385748929327	-243.25964291145476	338.5101385231525	23.831721937302994
8	0.035	-151.99992897242876	620.6645123646109	285.0970049744674	-276.70014702726047	490.4045725917074	10.009118532749754	-243.27006002350248	338.5190103019463	23.831931036727735
9	0.04	-151.99404210589626	620.6740726362419	285.1033302479961	-276.7014943681426	490.4110263383046	10.01111846479781	-243.28082251674357	338.5278451376795	23.83273872207333
10	0.045	-151.9881075459049	620.6835697907721	285.10978627014083	-276.70309926566983	490.4174078322532	10.013396107562691	-243.2919024638646	338.5366066120571	23.83417065034232
11	0.05	-151.98213582067626	620.6929850352648	285.11636128876034	-276.70496507709913	490.4236898181521	10.015961482152408	-243.30326924792462	338.54525685624606	23.83625120017664
12	0.055	-151.97613789415252	620.7022994772302	285.1230426444258	-276.707094147866	490.4298441710744	10.018823990054361	-243.3148895550768	338.5537566337997	23.839003310487545
13	0.06	-151.97012515308188	620.7114941775225	285.12981676848807	-276.70948774837746	490.43584196824355	10.021992332763226	-243.32672737799868	338.5620654331949	23.8424483170203
14	0.065	-151.96410939272198	620.7205502041679	285.13666918393125	-276.7121460120057	490.44165356740785	10.025474429527812	-243.3387440305484	338.57014157008166	23.846605787413573
15	0.07	-151.9581028011371	620.7294486869927	285.14358450914546	-276.71506787460703	490.4472486919252	10.029277333495632	-243.35089817414394	338.577942299304	23.851493355346946
16	0.075	-151.952117942065	620.7381708729137	285.15054646474874	-276.71825101590593	490.45259652254185	10.033407146561018	-243.3631458563384	338.5854239367177	23.857126554402722
17	0.08	-151.9461677363286	620.7466981817591	285.1575378835833	-276.7216918030929	490.45766579582187	10.037868933249353	-243.37544056204013	338.5925419907892	23.86351865230013
18	0.085	-151.94026544176955	620.7550122624821	285.1645407240081	-276.7253852369946	490.46242490915427	10.042666633996564	-243.3877332777954	338.59925130392133	23.870680486191002
19	0.09	-151.93442463167975	620.7630950496359	285.17153608660425	-276.72932490118745	490.4668420322352	10.047802978208885	-243.39997256951997	338.6055062034077	23.878620299735893
20	0.095	-151.9286591717092	620.7709288199766	285.17850423440404	-276.73350291442796	490.4708852248905	10.053279397513034	-243.41210467403113	338.611260661873	23.887343582708027
21	0.1	-151.92298319522976	620.7784962490588	285.1854246167474	-276.73790988678496	490.47452256107096	10.05909593963136	-243.42407360469218	338.61646846701285	23.896852913899572
22	0.105	-151.91741107713509	620.7857804676913	285.1922758968623	-276.74253487986	490.4777222588219	10.065251183339633	-243.4358212714408	338.62108340039583	23.907147808129956
23	0.11	-151.91195740606028	620.7927651181217	285.1990359832584	-276.74736537148874	490.4804528159904	10.07174215498718	-243.44728761542692	338.62505942504646	23.918224568179678
24	0.115	-151.90663695500666	620.7994344098153	285.20568206501156	-276.7523872253155	490.48268315140217	10.078564247079644	-243.45841075843907	338.6283508814725	23.93007614249425
25	0.12	-151.9014646503592	620.8057731746968	285.2121906510114	-276.757584665635	490.484382751203	10.085711139443603	-243.46912716724697	338.6309126917543	23.942691989522505
26	0.125	-151.89645553928892	620.8117669217218	285.2185376132277	-276.76294025789286	490.48552182002305	10.093174723509657	-243.47937183293394	338.63270057125715	23.956057949570145
27	0.13	-151.89162475553385	620.8174018906448	285.2246982340469	-276.76843489523276	490.48607143658677	10.100945030265832	-243.4890784652372	338.6336712474788	23.970156125063873
28	0.135	-151.88698748355864	620.8226651048527	285.2306472577126	-276.774047791474	490.486003713354	10.109010162446566	-243.49817970185305	338.63378268548803	23.984964770132883
29	0.14	-151.88255892109487	620.8275444231302	285.2363589458926	-276.7797564808931	490.4852919597404	10.11735623153363	-243.50660733260202	338.632994319358	24.000458190423238
30	0.145	-151.87835424007042	620.8320285902208	285.24180713738536	-276.7855368251761	490.48391084842905	10.125967300154144	-243.51429253828542	338.6312672889427	24.016606654065875
31	0.15	-151.87438854594066	620.8361072860548	285.246965311957	-276.791363027894	490.4818365842489	10.134825330467152	-243.52116614399546	338.62856468129297	24.033376314721437
32	0.155	-151.87067683543918	620.8397711735054	285.2518066582947	-276.79720765684283	490.47904707505614	10.14391013913396	-243.52715888657207	338.624851775951	24.050729147623624
33	0.16	-151.86723395277303	620.8430119445408	285.2563041460383	-276.80304167456893	490.47552210402176	10.153199359468399	-243.53220169582812	338.6200962933127	24.068622899537722
34	0.165	-151.86407454429073	620.8458223646363	285.2604306018436	-276.80883447738614	490.47124350269183	10.16266841136139	-243.53622598908908	338.61426864519024	24.087011053542327
35	0.17	-151.8612130116609	620.8481963153091	285.26415878940844	-276.8145539431672	490.4661953241508	10.172290479569341	-243.5391639785188	338.60734218665823	24.105842809529257
36	0.175	-151.85866346360268	620.8501288346415	285.26746149338055	-276.8201664881696	490.4603640155862	10.182036500948186	-243.54094899062426	338.59929346821446	24.1250630812999
37	0.18	-151.85643966621834	620.851616155654	285.2703116070463	-276.8256371331308	490.4537385895187	10.1918751612039	-243.54151579725408	338.59010248723496	24.144612511114694
38	0.185	-151.85455499198437	620.8526557423911	285.27268222368406	-276.8309295788381	490.4463107929311	10.201772901716275	-243.54080095732382	338.57975293765696	24.16442750252714
39	0.19	-151.8530223674645	620.8532463235823	285.27454673144547	-276.8360062913506	490.43807527349924	10.211693936975383	-243.5387431684224	338.56823245677674	24.184440272303092
40	0.195	-151.85185421981566	620.8533879237408	285.2758789116151	-276.8408285970161	490.4290297420997	10.221600283149575	-243.53528362736898	338.5555328680025	24.20457892219143
41	0.2	-151.85106242216588	620.8530818915592	285.27665304007377	-276.84535678739064	490.41917513074236	10.231451798279881	-243.53036639870976	338.54165041836495	24.224767531272462
42	0.205	-151.85065823794923	620.852330925468	285.2768439917804	-276.84955023413323	490.40851574505075	10.241206234568448	-243.5239387900611	338.5265860095435	24.24492626956571
43	0.21	-151.8506522642923	620.8511390962153	285.27642734806346	-276.85336751390787	490.39705941039347	10.250819303198044	-243.51595173312248	338.510345421136	24.26497153352937
44	0.215	-151.85105437455286	620.8495118663319	285.2753795064982	-276.8567665432826	490.38481761074684	10.260244752085647	-243.5063601691037	338.4929395248604	24.28481610402921
45	0.22	-151.8518736601198	620.8474561063464	285.27367779312794	-276.8597047235741	490.3718056193546	10.269434456935961	-243.49512343722745	338.4743844883527	24.304369327295056
46	0.225	-151.85311837159085	620.8449801076116	285.2713005767687	-276.86213909554016	490.358042620235	10.27833852592007	-243.48220566489144	338.4547019671962	24.323537319318508
47	0.23	-151.85479585945197	620.8420935916129	285.2682273851204	-276.86402650377505	490.343551819576	10.286905418260725	-243.46757615799567	338.4339192837966	24.3422231940758
48	0.235	-151.85691251438877	620.8388077156201	285.2644390223913	-276.8653237706145	490.3283605460487	10.295082076958856	-243.4512097898659	338.41206959170137	24.360327315885165
49	0.24	-151.85947370736935	620.8351350745588	285.2599176881256	-276.865987879307	490.3125003390673	10.302814075845845	-243.4330873871313	338.3891920239455	24.377747576128264
50	0.245	-151.8624837296421	620.8310896989691	285.25464709690795	-276.8659761661571	490.29600702402263	10.31004578109321	-243.4131961108434	338.3653318240031	24.39437969448078
51	0.25	-151.86594573280135	620.8266870489289	285.2486125986051	-276.86524652129253	490.27892077351856	10.316720527255498	-243.39152983106004	338.3405404579163	24.41011754470786
52	0.255	-151.86986166907715	620.8219440038209	285.24180129878846	-276.8637575976545	490.26128615364826	10.32278080786367	-243.36808949305237	338.31487570617975	24.42485350498595
53	0.26	-151.87423223201452	620.8168788478257	285.2342021789703	-276.86146902775556	490.24315215435917	10.328168480525171	-243.34288347323582	338.2884017339653	24.43847883261408
54	0.265	-151.87905679770944	620.8115112510285	285.2258062162717	-276.8583416476938	490.2245722029703	10.332824986423429	-243.31592792287444	338.2611891382867	24.450884062874515
55	0.27	-151.88433336677713	620.8058622460305	285.216606502129	-276.85433772785854	490.2056041599268	10.33669158404369	-243.28724709755625	338.2333149707243	24.461959431695718
56	0.275	-151.89005850723143	620.7999541999673	285.2065983596372	-276.8494212097042	490.18631029589994	10.339709596884571	-243.25687367039768	338.2048627343571	24.471595321659485
